<svg xmlns="http://www.w3.org/2000/svg" enable-background="new 0 0 47.5 47.5" viewBox="0 0 47.5 47.5" id="tongue"><defs><clipPath id="a"><path d="M0 38h38V0H0v38Z"></path></clipPath></defs><g clip-path="url(#a)" transform="matrix(1.25 0 0 -1.25 0 47.5)"><path fill="#662113" d="M0 0c0-4.5-8.059-11.5-18-11.5S-36-4.5-36 0c0 1.5 3-1.5 18-1.5S0 1.5 0 0" transform="translate(37 29.5)"></path><path fill="#ea596e" d="M0 0c-6 0-11 1-11 1v-12c0-6.075 4.925-11 11-11s11 4.925 11 11V1S6 0 0 0" transform="translate(19 26)"></path><path fill="#dd2e44" d="M0 0a1 1 0 1 0-2 0v16a1 1 0 0 0 2 0V0Z" transform="translate(20 8)"></path></g></svg>